HIERARCHY
ROOT Hips
{
	OFFSET -0.001795 -0.223333 0.028219
	CHANNELS 6 Xposition Yposition Zposition Zrotation Yrotation Xrotation 
	JOINT LeftUpLeg
	{
		OFFSET 0.069520 -0.091406 -0.006815
		CHANNELS 3 Zrotation Yrotation Xrotation
		JOINT LeftLeg
		{
			OFFSET 0.034277 -0.375199 -0.004496
			CHANNELS 3 Zrotation Yrotation Xrotation
			JOINT LeftFoot
			{
				OFFSET -0.013596 -0.397961 -0.043693
				CHANNELS 3 Zrotation Yrotation Xrotation
				JOINT LeftToe
				{
					OFFSET 0.026358 -0.055791 0.119288
					CHANNELS 3 Zrotation Yrotation Xrotation
					End Site
					{
						OFFSET 0.000000 0.000000 0.000000
					}
				}
			}
		}
	}
	JOINT RightUpLeg
	{
		OFFSET -0.067670 -0.090522 -0.004320
		CHANNELS 3 Zrotation Yrotation Xrotation
		JOINT RightLeg
		{
			OFFSET -0.038290 -0.382569 -0.008850
			CHANNELS 3 Zrotation Yrotation Xrotation
			JOINT RightFoot
			{
				OFFSET 0.015774 -0.398415 -0.042312
				CHANNELS 3 Zrotation Yrotation Xrotation
				JOINT RightToe
				{
					OFFSET -0.025372 -0.048144 0.123348
					CHANNELS 3 Zrotation Yrotation Xrotation
					End Site
					{
						OFFSET 0.000000 0.000000 0.000000
					}
				}
			}
		}
	}
	JOINT Spine
	{
		OFFSET -0.002533 0.108963 -0.026696
		CHANNELS 3 Zrotation Yrotation Xrotation
		JOINT Spine1
		{
			OFFSET 0.005487 0.135180 0.001092
			CHANNELS 3 Zrotation Yrotation Xrotation
			JOINT Spine2
			{
				OFFSET 0.001457 0.052922 0.025425
				CHANNELS 3 Zrotation Yrotation Xrotation
				JOINT Neck
				{
					OFFSET -0.002778 0.213870 -0.042857
					CHANNELS 3 Zrotation Yrotation Xrotation
					JOINT Head
					{
						OFFSET 0.005152 0.064970 0.051349
						CHANNELS 3 Zrotation Yrotation Xrotation
						End Site
						{
							OFFSET 0.000000 0.000000 0.000000
						}
					}
				}
				JOINT LeftShoulder
				{
					OFFSET 0.078845 0.121749 -0.034090
					CHANNELS 3 Zrotation Yrotation Xrotation
					JOINT LeftArm
					{
						OFFSET 0.090977 0.030469 -0.008868
						CHANNELS 3 Zrotation Yrotation Xrotation
						JOINT LeftForeArm
						{
							OFFSET 0.259612 -0.012772 -0.027456
							CHANNELS 3 Zrotation Yrotation Xrotation
							JOINT LeftHand
							{
								OFFSET 0.249234 0.008986 -0.001171
								CHANNELS 3 Zrotation Yrotation Xrotation
								End Site
								{
									OFFSET 0.000000 0.000000 0.000000
								}
							}
						}
					}
				}
				JOINT RightShoulder
				{
					OFFSET -0.081759 0.118833 -0.038615
					CHANNELS 3 Zrotation Yrotation Xrotation
					JOINT RightArm
					{
						OFFSET -0.096012 0.032551 -0.009143
						CHANNELS 3 Zrotation Yrotation Xrotation
						JOINT RightForeArm
						{
							OFFSET -0.253742 -0.013329 -0.021401
							CHANNELS 3 Zrotation Yrotation Xrotation
							JOINT RightHand
							{
								OFFSET -0.255298 0.007772 -0.005559
								CHANNELS 3 Zrotation Yrotation Xrotation
								End Site
								{
									OFFSET 0.000000 0.000000 0.000000
								}
							}
						}
					}
				}
			}
		}
	}
}
MOTION
Frames: 15
Frame Time: 0.050000
0.000000 0.941793 0.000000 0.085453 -2.811755 6.109304 6.081128 -0.262857 -3.667558 2.834690 -0.122789 -3.308798 3.308755 9.917368 13.423984 0.000000 0.000000 0.000000 -4.313701 0.404792 -3.528447 -3.928826 0.116262 -3.710423 -2.706154 -12.555353 22.617941 0.000000 0.000000 0.000000 5.594777 0.248006 -4.346324 -3.595391 1.667467 -1.531521 -3.983857 4.598346 0.052509 5.776197 -3.566613 -5.462415 0.000000 0.000000 0.000000 -19.090598 -1.843295 -2.003247 -53.255889 -4.344906 -3.806946 -5.645321 -15.637364 1.222376 0.000000 0.000000 0.000000 17.478807 -4.347434 -3.177968 61.296210 4.475375 -3.094721 5.692396 18.040288 1.467741 0.000000 0.000000 0.000000 
0.000258 0.940822 0.000101 0.085010 -3.120893 6.895652 5.994421 -0.257988 -3.317502 2.931436 -0.008840 -5.299621 3.423673 10.119135 13.798651 0.000000 0.000000 0.000000 -4.107265 0.477432 -4.552350 -4.414858 0.160914 -3.511269 -2.653623 -12.493540 22.327346 0.000000 0.000000 0.000000 6.703736 0.312375 -4.963450 -4.411196 2.020279 -2.023020 -4.948994 4.963533 -0.103180 5.987331 -3.556089 -6.253240 0.000000 0.000000 0.000000 -19.990267 -1.319965 -2.520224 -51.824966 -4.530177 -3.544206 -5.797207 -15.493365 1.220867 0.000000 0.000000 0.000000 17.732990 -5.527425 -3.756132 62.105704 4.320904 -3.162525 5.847412 17.266423 1.426259 0.000000 0.000000 0.000000 
0.000371 0.940717 -0.000001 0.432482 -2.976549 6.690964 5.458479 -0.279262 -3.717127 3.209544 -0.089512 -4.317727 3.384857 10.037978 13.558363 0.000000 0.000000 0.000000 -4.431491 0.480789 -4.625008 -4.508082 0.212382 -2.953579 -2.801895 -12.652525 22.108103 0.000000 0.000000 0.000000 6.571615 0.296675 -4.801752 -4.265117 1.940805 -2.536638 -5.366663 4.389684 -0.031920 5.666133 -3.553988 -5.066471 0.000000 0.000000 0.000000 -19.699241 -1.567858 -2.236052 -52.067420 -3.761952 -3.932741 -4.888820 -15.037891 1.080616 0.000000 0.000000 0.000000 18.750829 -4.436898 -3.360931 60.792866 4.219315 -3.231619 6.102060 17.219554 1.442485 0.000000 0.000000 0.000000 
0.000399 0.940696 -0.000078 0.629338 -2.852217 7.103584 5.612374 -0.296406 -4.004478 2.580285 -0.020647 -4.693826 3.296134 9.935068 13.690548 0.000000 0.000000 0.000000 -4.489204 0.518186 -5.170290 -4.789882 0.249662 -2.751734 -2.919141 -12.806762 22.115253 0.000000 0.000000 0.000000 6.547012 0.299636 -4.938167 -4.668074 2.132007 -2.112342 -5.054068 3.523457 -1.191242 5.211991 -3.445498 -3.756186 0.000000 0.000000 0.000000 -19.813862 -0.702869 -2.541937 -52.318815 -4.027309 -3.760907 -3.846292 -14.872546 0.946608 0.000000 0.000000 0.000000 17.557776 -4.505480 -3.480808 61.256659 3.752687 -3.329449 7.008504 17.678654 1.575960 0.000000 0.000000 0.000000 
0.000332 0.941185 -0.000206 0.868565 -2.531824 6.976804 5.123376 -0.316128 -4.239642 3.030508 -0.080829 -4.207423 3.117167 9.701788 13.719260 0.000000 0.000000 0.000000 -4.603417 0.515658 -5.196305 -4.985796 0.299880 -2.356796 -3.097131 -13.030409 22.218101 0.000000 0.000000 0.000000 6.259282 0.275498 -4.740024 -4.272102 1.954559 -2.151420 -5.361312 3.332549 -1.228021 4.942004 -3.167948 -4.217099 0.000000 0.000000 0.000000 -19.576783 -0.840357 -2.451628 -52.423713 -4.078943 -3.747385 -4.000148 -14.633068 0.949743 0.000000 0.000000 0.000000 17.570546 -4.635160 -3.537325 60.917761 3.847930 -3.258958 7.392578 17.562977 1.618169 0.000000 0.000000 0.000000 
0.000263 0.941633 -0.000242 1.029822 -2.491037 7.221946 5.086574 -0.327895 -4.405619 2.794667 -0.049574 -4.432448 3.051318 9.646528 13.956109 0.000000 0.000000 0.000000 -4.647344 0.524120 -5.298902 -5.215319 0.293044 -2.652175 -3.098304 -13.058583 22.441671 0.000000 0.000000 0.000000 6.034966 0.265661 -4.725659 -4.213774 1.917517 -2.520981 -5.274839 3.291773 -1.228104 5.276053 -3.457980 -3.946642 0.000000 0.000000 0.000000 -19.964467 -0.388347 -2.737811 -52.055561 -3.733364 -3.855786 -4.038545 -15.061359 0.982312 0.000000 0.000000 0.000000 17.296850 -4.740599 -3.571151 61.135775 3.666699 -3.350728 7.417834 17.536553 1.617090 0.000000 0.000000 0.000000 
0.000220 0.942083 -0.000292 1.112994 -2.322106 7.265263 4.937443 -0.343663 -4.638894 2.924073 -0.072857 -4.186911 2.954372 9.529312 14.024990 0.000000 0.000000 0.000000 -4.580411 0.524767 -5.328664 -5.461358 0.315560 -2.627270 -3.165997 -13.158036 22.634037 0.000000 0.000000 0.000000 5.920772 0.246744 -4.563154 -4.143098 1.886077 -2.544491 -5.322611 3.067031 -1.309851 5.442469 -3.486178 -4.496100 0.000000 0.000000 0.000000 -19.817175 -0.035689 -2.876883 -51.969923 -3.359848 -4.006425 -4.393863 -15.523682 1.060154 0.000000 0.000000 0.000000 17.211633 -4.795854 -3.614890 61.223353 3.292120 -3.536053 7.541140 17.976454 1.677812 0.000000 0.000000 0.000000 
0.000253 0.942473 -0.000364 1.236238 -1.993252 7.565805 4.811562 -0.374987 -5.106460 2.959638 -0.079420 -4.091260 2.776632 9.314657 14.128982 0.000000 0.000000 0.000000 -4.626209 0.534498 -5.487523 -5.574137 0.310243 -2.811146 -3.325357 -13.372011 22.911179 0.000000 0.000000 0.000000 5.746278 0.242427 -4.623732 -3.999255 1.820252 -2.618395 -5.511353 3.084817 -1.490335 5.504186 -3.560318 -4.256589 0.000000 0.000000 0.000000 -19.634591 0.155507 -3.015645 -51.646851 -2.953171 -4.121881 -4.797222 -16.227944 1.155119 0.000000 0.000000 0.000000 17.146873 -5.197453 -3.771899 61.372171 2.831192 -3.749391 7.470628 18.284873 1.708033 0.000000 0.000000 0.000000 
0.000305 0.942834 -0.000474 1.424345 -1.869071 7.600379 4.581034 -0.395344 -5.385874 3.010216 -0.103621 -3.746997 2.701643 9.225167 14.177214 0.000000 0.000000 0.000000 -4.729320 0.538349 -5.570332 -5.743640 0.334340 -2.697734 -3.393572 -13.464545 23.022446 0.000000 0.000000 0.000000 5.636391 0.231132 -4.532284 -4.009012 1.818955 -2.895369 -5.523915 3.112292 -1.314479 5.438363 -3.505100 -4.305496 0.000000 0.000000 0.000000 -19.399454 0.456423 -3.149775 -51.560409 -2.839387 -4.181450 -5.074144 -16.479706 1.210085 0.000000 0.000000 0.000000 16.992862 -5.404605 -3.839840 61.333651 2.425311 -3.968814 7.441107 18.562742 1.738937 0.000000 0.000000 0.000000 
0.000314 0.943077 -0.000552 1.539526 -1.797027 7.611356 4.422795 -0.411336 -5.614546 3.072520 -0.128645 -3.414637 2.663711 9.180528 14.192473 0.000000 0.000000 0.000000 -4.846627 0.535830 -5.543410 -5.747981 0.330552 -2.750350 -3.425795 -13.508861 23.107583 0.000000 0.000000 0.000000 5.669912 0.224514 -4.469486 -4.065814 1.842009 -2.997594 -5.633694 3.233510 -1.309532 5.258956 -3.353513 -4.404114 0.000000 0.000000 0.000000 -19.249606 0.457062 -3.166381 -51.404289 -2.825757 -4.170977 -5.051337 -16.587117 1.210420 0.000000 0.000000 0.000000 16.934604 -5.501775 -3.847722 61.309563 2.198492 -4.080293 7.022591 18.605556 1.688472 0.000000 0.000000 0.000000 
0.000271 0.943144 -0.000566 1.665058 -1.878548 7.641970 4.363822 -0.411396 -5.591945 2.923321 -0.111998 -3.498951 2.683465 9.215063 14.268854 0.000000 0.000000 0.000000 -4.984566 0.543190 -5.660066 -5.760331 0.340861 -2.638908 -3.402282 -13.482967 23.062515 0.000000 0.000000 0.000000 5.701429 0.219832 -4.414132 -4.152991 1.877000 -3.116013 -5.705963 3.263099 -1.259975 5.223046 -3.330958 -4.384742 0.000000 0.000000 0.000000 -19.338106 0.478054 -3.192818 -51.235543 -2.915163 -4.116211 -4.681255 -16.544764 1.154636 0.000000 0.000000 0.000000 16.881849 -5.565539 -3.872363 61.238519 2.081021 -4.138106 7.075434 18.730065 1.710658 0.000000 0.000000 0.000000 
0.000182 0.943139 -0.000504 1.756845 -1.604319 7.697915 4.381373 -0.411119 -5.536830 2.769915 -0.080670 -3.804562 2.517139 9.004353 14.319832 0.000000 0.000000 0.000000 -5.041349 0.537526 -5.599132 -5.782952 0.336086 -2.731895 -3.553877 -13.660156 23.125657 0.000000 0.000000 0.000000 5.707019 0.221659 -4.470620 -4.107155 1.860721 -2.997609 -5.916185 3.186971 -1.531305 4.828427 -3.081475 -4.107583 0.000000 0.000000 0.000000 -19.112855 0.518484 -3.215490 -51.321153 -3.156302 -3.998151 -4.223835 -16.085106 1.054954 0.000000 0.000000 0.000000 16.784977 -5.882360 -4.007660 61.214417 1.930191 -4.174148 6.977862 18.708968 1.695420 0.000000 0.000000 0.000000 
0.000062 0.943226 -0.000355 1.785289 -1.564423 7.710732 4.334422 -0.405167 -5.394696 2.815326 -0.067495 -4.079860 2.470158 8.956529 14.415423 0.000000 0.000000 0.000000 -4.930181 0.537367 -5.596378 -6.016874 0.354956 -2.727725 -3.570609 -13.685058 23.172285 0.000000 0.000000 0.000000 5.711016 0.229233 -4.555744 -4.020970 1.827763 -2.774463 -5.977125 3.053544 -1.957396 4.537071 -2.931283 -3.692961 0.000000 0.000000 0.000000 -19.129194 0.802242 -3.361013 -51.134816 -3.306114 -3.880696 -4.012702 -15.657127 0.997948 0.000000 0.000000 0.000000 16.566798 -6.105280 -4.120772 61.224388 1.779367 -4.199360 6.957134 19.012611 1.717616 0.000000 0.000000 0.000000 
-0.000058 0.943241 -0.000210 1.794156 -1.396733 7.704095 4.347580 -0.403594 -5.343941 2.814506 -0.059547 -4.199845 2.374997 8.833788 14.425025 0.000000 0.000000 0.000000 -4.805125 0.536220 -5.598049 -6.212964 0.381564 -2.621779 -3.662141 -13.793952 23.209535 0.000000 0.000000 0.000000 5.817126 0.239756 -4.672043 -4.010675 1.825186 -2.717719 -6.106043 2.859614 -2.076738 4.092004 -2.665635 -3.308883 0.000000 0.000000 0.000000 -19.125157 0.970599 -3.436116 -51.111809 -3.450341 -3.808974 -3.667317 -15.242145 0.927662 0.000000 0.000000 0.000000 16.439874 -6.437909 -4.292023 61.267723 1.460542 -4.348253 7.008082 19.516542 1.775056 0.000000 0.000000 0.000000 
-0.000174 0.943304 -0.000090 1.842744 -1.491603 7.719323 4.244481 -0.403641 -5.316305 2.898034 -0.063832 -4.234735 2.411515 8.890999 14.487969 0.000000 0.000000 0.000000 -4.790669 0.535949 -5.575754 -6.339662 0.381556 -2.719050 -3.608304 -13.734507 23.218407 0.000000 0.000000 0.000000 5.846347 0.252968 -4.805068 -4.009281 1.822902 -2.779351 -6.217891 2.815303 -2.164750 4.035897 -2.682251 -2.941547 0.000000 0.000000 0.000000 -18.803921 1.091704 -3.430997 -51.335510 -3.461662 -3.827602 -3.554410 -15.039843 0.901551 0.000000 0.000000 0.000000 16.213625 -6.743680 -4.432616 61.442324 1.332292 -4.410313 6.928729 19.756440 1.785001 0.000000 0.000000 0.000000 
